<svg version="1.2" xmlns="http://www.w3.org/2000/svg" viewBox="0 0 21 18" width="21" height="18"><style>.a{fill:#f0831e}</style><path fill-rule="evenodd" class="a" d="m19.7 7.2c-0.4 0.3-1.4 0.2-2.2 0-0.9-0.2-1.7-0.5-2-0.8-0.2-0.4-0.2-1 0.1-1.3 0.3-0.3 0.6-1.7-0.2-2.1-0.8-0.5-4.8-0.7-5.3-0.7-0.4 0-4.4 0.2-5.2 0.7-0.9 0.4-0.6 1.8-0.2 2.1 0.3 0.3 0.3 0.9 0 1.3-0.2 0.3-1.1 0.6-1.9 0.8-0.8 0.2-1.9 0.3-2.2 0-0.5-0.4-0.6-0.7-0.6-1.7 0.1-0.9 0.5-2.5 1.8-3.7 1.4-1.2 5.2-1.8 8.3-1.8 3.2 0 7 0.6 8.3 1.8 1.4 1.2 1.7 2.8 1.8 3.7 0.1 1 0 1.3-0.5 1.7zm-7.6 4.3c0 1.2-0.9 2.1-2 2.1-1.1 0-1.9-0.9-1.9-2.1 0-1.1 0.8-2 1.9-2 1.1 0 2 0.9 2 2zm6.2 2.3c0 0.9 0 2.4 0 2.6 0 0.3-0.1 0.8-1.2 0.8-1.1 0-7 0-7 0 0 0-5.8 0-6.9 0-1.2 0-1.2-0.5-1.2-0.8 0-0.2 0-1.7 0-2.6 0-0.8 0.5-2.5 1.3-3.9 0.7-1.3 1.7-2.5 2.4-3 0.6-0.6 0.4-1 0.4-1.3 0-0.3 0-0.9 0-1.4 0-0.4 0.2-0.7 0.4-0.7 0.2 0 1 0 1.1 0 0.3 0 0.4 0.4 0.4 0.5 0 0.2 0 0.1 0 0.5 0 0.4 0.3 0.6 0.5 0.6 0.3 0 1.2 0 1.6 0 0.4 0 1.4 0 1.6 0 0.3 0 0.5-0.2 0.5-0.6 0-0.4 0-0.3 0-0.5 0-0.1 0.1-0.5 0.4-0.5 0.2 0 1 0 1.1 0 0.3 0 0.4 0.3 0.4 0.7 0 0.5 0 1.1 0 1.4 0 0.3-0.1 0.7 0.5 1.3 0.6 0.5 1.7 1.7 2.4 3 0.7 1.4 1.2 3.1 1.3 3.9zm-4.1-2.3c0-2.3-1.8-4.3-4.1-4.3-2.3 0-4.1 2-4.1 4.3 0 2.4 1.8 4.3 4.1 4.3 2.3 0 4.1-1.9 4.1-4.3z"/></svg>